:SAMPLES-PER-SECOND 30
:FULLY-SPECIFIED
:DEGREES
65
root  8.23216 47.7077 -1.3762 -117.407 87.7896 -122.433
RightUpLeg  -18.7788 4.22188 5.38547
RightLeg  23.9061 11.0154 0.839808
RightFoot  20.5738 -0.791125 2.58899
RightToes  3.49245e-010 -3.18055e-015 8.94531e-016
Spine  0.872221 -1.38018 -3.52401
Spine1  11.9436 -2.25112 2.78011
HEad  -22.7754 2.45883 3.62779
LeftShoulder1  0 -2.69403e-036 -1.28585e-037
LeftArm  31.3938 58.3866 -76.665
LeftForeArm  -48.784 -26.1883 16.9673
LeftHand  0.97654 6.92582 -6.47282
RightShoulder  -2.48481e-017 0 -8.08114e-019
RightArm  48.8403 -60.3949 83.9136
RightForeArm  -50.853 21.0924 -17.5766
RightHand  1.11697 -10.909 -1.18735
LeftUpLeg  -17.6104 -9.24443 -0.25557
LeftLeg  16.0602 -5.38993 1.44383
LeftFoot  13.4902 1.70338 -6.94527
LeftToes  2.65573e-010 7.17151e-011 4.62952e-011
66
root  9.95391 47.1947 -1.32455 -119.463 87.2088 -124.894
RightUpLeg  -19.9459 4.09899 5.49671
RightLeg  18.5726 10.8654 0.755054
RightFoot  18.6083 -1.18527 4.14638
RightToes  3.49245e-010 -3.18055e-015 8.94531e-016
Spine  1.62093 -1.37326 -3.46391
Spine1  12.1586 -2.4552 3.58133
HEad  -24.9723 2.24599 3.73626
LeftShoulder1  0 -2.69403e-036 -1.28585e-037
LeftArm  30.3896 57.9331 -77.1461
LeftForeArm  -47.9553 -25.7491 16.5081
LeftHand  0.955193 6.66595 -6.39181
RightShoulder  -2.48481e-017 0 -8.08114e-019
RightArm  47.7691 -61.399 83.7909
RightForeArm  -50.4438 21.0837 -17.9678
RightHand  1.09171 -10.7559 -0.966368
LeftUpLeg  -18.6634 -5.32177 -0.785081
LeftLeg  11.1915 -7.47902 1.49455
LeftFoot  16.0466 2.01428 -7.46842
LeftToes  2.65573e-010 7.17151e-011 4.62952e-011
67
root  11.6987 46.2373 -1.2755 -119.22 86.815 -125.192
RightUpLeg  -21.5993 3.63709 5.55766
RightLeg  14.6699 9.81161 0.542904
RightFoot  18.2444 -1.91405 6.78682
RightToes  3.49245e-010 -3.18055e-015 8.94531e-016
Spine  2.36559 -1.27868 -3.23193
Spine1  11.6932 -2.43852 3.99503
HEad  -27.2346 1.80007 3.60176
LeftShoulder1  0 -2.69403e-036 -1.28585e-037
LeftArm  28.2316 57.1203 -77.4722
LeftForeArm  -46.4959 -25.1577 15.5639
LeftHand  0.921273 6.40861 -4.94828
RightShoulder  -2.48481e-017 0 -8.08114e-019
RightArm  46.2797 -61.9831 84.2204
RightForeArm  -49.745 21.0277 -17.332
RightHand  1.07308 -10.6663 -0.726682
LeftUpLeg  -20.3066 -3.84487 -0.852393
LeftLeg  8.61584 -7.0876 1.44837
LeftFoot  16.8342 1.99471 -7.18417
LeftToes  2.65573e-010 7.17151e-011 4.62952e-011
68
root  13.4706 44.7514 -1.22812 -119.892 86.3773 -126.18
RightUpLeg  -23.4075 4.03265 5.47166
RightLeg  12.8941 7.84361 0.26743
RightFoot  20.831 -2.46152 8.02678
RightToes  3.49245e-010 -3.18055e-015 8.94531e-016
Spine  3.39321 -1.32065 -2.79245
Spine1  10.9292 -2.47512 3.99901
HEad  -29.4312 1.65418 3.66269
LeftShoulder1  0 -2.69403e-036 -1.28585e-037
LeftArm  25.9049 55.8919 -77.9024
LeftForeArm  -47.1692 -24.938 14.9871
LeftHand  0.911248 6.52211 -2.41262
RightShoulder  -2.48481e-017 0 -8.08114e-019
RightArm  44.8202 -61.3155 85.4763
RightForeArm  -48.7987 20.9564 -15.5691
RightHand  1.03121 -10.5467 0.0786994
LeftUpLeg  -22.2041 -4.44673 -0.44105
LeftLeg  8.7991 -5.38543 1.69404
LeftFoot  16.6399 1.83421 -6.63903
LeftToes  2.65573e-010 7.17151e-011 4.62952e-011
69
root  15.2499 42.7101 -1.17773 -119.811 85.6415 -125.067
RightUpLeg  -24.3313 5.61964 5.70701
RightLeg  14.7966 6.85014 -0.397587
RightFoot  23.6971 -2.17721 6.50999
RightToes  3.49245e-010 -3.18055e-015 8.94531e-016
Spine  5.43297 -1.31937 -2.08986
Spine1  10.7618 -2.56739 4.03162
HEad  -31.9312 1.92985 4.06701
LeftShoulder1  0 -2.69403e-036 -1.28585e-037
LeftArm  24.6535 53.1429 -79.1234
LeftForeArm  -50.0203 -24.9758 14.7031
LeftHand  0.888284 6.50709 0.140423
RightShoulder  -2.48481e-017 0 -8.08114e-019
RightArm  43.6151 -59.0325 86.83
RightForeArm  -47.9834 20.8656 -13.2992
RightHand  0.949076 -10.1547 1.41011
LeftUpLeg  -24.1396 -8.97691 1.85489
LeftLeg  13.7266 -2.10245 2.28463
LeftFoot  16.9505 1.68888 -6.03027
LeftToes  2.65573e-010 7.17151e-011 4.62952e-011
70
root  16.9802 40.3032 -1.13358 -117.512 84.7849 -120.585
RightUpLeg  -25.5043 7.24843 6.51245
RightLeg  23.7843 7.80062 -0.744113
RightFoot  18.5912 -0.904816 3.16252
RightToes  3.49245e-010 -3.18055e-015 8.94531e-016
Spine  8.45124 -1.11891 -1.15672
Spine1  10.8305 -2.51175 4.29387
HEad  -34.8925 2.37648 4.38635
LeftShoulder1  0 -2.69403e-036 -1.28585e-037
LeftArm  22.5144 47.6103 -80.6557
LeftForeArm  -48.388 -23.8692 11.2947
LeftHand  0.794523 5.94093 1.27696
RightShoulder  -2.48481e-017 0 -8.08114e-019
RightArm  41.8881 -55.4943 87.5949
RightForeArm  -46.435 20.573 -10.2606
RightHand  0.880601 -9.6777 2.36942
LeftUpLeg  -26.6844 -12.5581 4.02366
LeftLeg  24.6396 -3.15348 3.10367
LeftFoot  12.9756 1.2688 -5.24328
LeftToes  2.65573e-010 7.17151e-011 4.62952e-011
